{"title":"WERE BACK-A DINOSAURS STORY IN XVID BY WINKER","uid":5283282,"size":733515361,"categoryP":"video","categoryS":"movies","magnet":"?xt=urn:btih:058bb5ed51ea19deb975a3ad274e08cd1a3bd420&amp;dn=WERE+BACK-A+DINOSAURS+STORY+IN+XVID+BY+WINKER&amp;tr=udp%3A%2F%2Ftracker.openbittorrent.com%3A80&amp;tr=udp%3A%2F%2Fopen.demonii.com%3A1337&amp;tr=udp%3A%2F%2Ftracker.coppersurfer.tk%3A6969&amp;tr=udp%3A%2F%2Fexodus.desync.com%3A6969","seeders":7,"leechers":1,"uploader":"alanwatson","files":-1,"time":1263627159,"description":"A Dinosaur Adventure For The Whole Family!\n\nThe voices of the above stars bring a handful of dinosaurs back to life in the modern day, in this Steven Spielberg production. Lavish animation and imagination bring to life this delightful tale of dinosaurs in New York City.\n\nA group of very friendly, very intelligent dinosaurs take a trip to Manhattan and brighten the lives of two very special, lonely children.\n\nFormat                           : AVI\nFormat/Info                      : Audio Video Interleave\nFile size                        : 699 MiB\nDuration                         : 1h 8mn\nOverall bit rate                 : 1 432 Kbps\n\nVideo\nID                               : 0\nFormat                           : MPEG-4 Visual\nFormat profile                   : AdvancedSimple@L5\nFormat settings, BVOP            : Yes\nFormat settings, QPel            : No\nFormat settings, GMC             : No warppoints\nFormat settings, Matrix          : Default (MPEG)\nMuxing mode                      : Packed bitstream\nCodec ID                         : XVID\nCodec ID/Hint                    : XviD\nDuration                         : 1h 8mn\nBit rate                         : 1 295 Kbps\nWidth                            : 608 pixels\nHeight                           : 448 pixels\nDisplay aspect ratio             : 4:3\nFrame rate                       : 25.000 fps\nResolution                       : 24 bits\nColorimetry                      : 4:2:0\nScan type                        : Progressive\nBits/(Pixel*Frame)               : 0.190\nStream size                      : 633 MiB (90%)\nWriting library                  : XviD 1.2.0.dev47 (UTC 2006-11-01)\n\nAudio\nID                               : 1\nFormat                           : MPEG Audio\nFormat version                   : Version 1\nFormat profile                   : Layer 3\nCodec ID                         : 55\nCodec ID/Hint                    : MP3\nDuration                         : 1h 7mn\nBit rate mode                    : Constant\nBit rate                         : 128 Kbps\nChannel(s)                       : 2 channels\nSampling rate                    : 48.0 KHz\nResolution                       : 16 bits\nStream size                      : 62.1 MiB (9%)\nAlignment                        : Aligned on interleaves\nInterleave, duration             : 40 ms (1.01 video frame)\nInterleave, preload duration     : 504 ms\nWriting library                  : LAME3.97 \n\n\n\n","torrent":{"xt":"urn:btih:058bb5ed51ea19deb975a3ad274e08cd1a3bd420","amp;dn":"WERE+BACK-A+DINOSAURS+STORY+IN+XVID+BY+WINKER","amp;tr":["udp%3A%2F%2Ftracker.openbittorrent.com%3A80","udp%3A%2F%2Fopen.demonii.com%3A1337","udp%3A%2F%2Ftracker.coppersurfer.tk%3A6969","udp%3A%2F%2Fexodus.desync.com%3A6969"],"infoHash":"058bb5ed51ea19deb975a3ad274e08cd1a3bd420","infoHashBuffer":{"type":"Buffer","data":[5,139,181,237,81,234,25,222,185,117,163,173,39,78,8,205,26,59,212,32]},"announce":[],"urlList":[]}}